<?xml version="1.0" encoding="utf-8"?><!-- Uploaded to: SVG Repo, www.svgrepo.com, Generator: SVG Repo Mixer Tools -->
<svg fill="#000000" width="800px" height="800px" viewBox="0 0 24 24" role="img" xmlns="http://www.w3.org/2000/svg">
  <path fill="none" d="M0 0h24v24H0z" /> <!-- Defines the viewBox area -->

  <!-- Background rectangle -->
  <path d="M0 0v24h24V0z" fill="#000000" />

  <!-- Letter H -->
  <path d="M9.95 8.002h1.805c.061 0 .111.05.111.111v7.767c0 .061-.05.111-.11.111H9.95a.111.111 0 0 1-.111-.11v-2.87H7.894v2.87c0 .06-.05.11-.11.11H5.976a.11.11 0 0 1-.11-.11V8.112c0-.06.05-.11.11-.11h1.806c.061 0 .11.05.11.11v2.869H9.84v-2.87c0-.06.05-.11.11-.11z" fill="#ffffff"/>

  <!-- Right rectangular block -->
  <path d="M12.949 8.002h5.778c.061 0 .111.05.111.11v7.77a.111.111 0 0 1-.111.11h-5.78a.111.111 0 0 1-.11-.11v-7.77c0-.06.05-.11.11-.11z" fill="#2ec866"/>
</svg>

